/* XPM */
static char *cb674661280f4da4cfeb5c2707328f19SOAH2Co1wlxxzSeZ[] = {
/* columns rows colors chars-per-pixel */
"21 21 2 1 ",
"  c black",
". c white",
/* pixels */
"                     ",
" ....................",
" ....................",
" ....................",
" ....................",
" ....................",
" ....................",
" ....................",
" ....................",
" ....................",
" ....................",
" ....................",
" ....................",
" ....................",
" ....................",
" ....................",
" ....................",
" ....................",
" ....................",
" ....................",
" ...................."
};
