/* XPM */
static char *c80e3a39979c40a880104ee2614c6358Kdb0p3H2NzwQgFW2[] = {
/* columns rows colors chars-per-pixel */
"21 21 2 1 ",
"  c black",
". c #C3C3C3",
/* pixels */
"                     ",
" ....................",
" ....................",
" ....................",
" ....................",
" ....................",
" ....................",
" ....................",
" ....................",
" ....................",
" ....................",
" ....................",
" ....................",
" ....................",
" ....................",
" ....................",
" ....................",
" ....................",
" ....................",
" ....................",
" ...................."
};
